<?xml version="1.0" standalone="no"?>
<!DOCTYPE svg PUBLIC "-//W3C//DTD SVG 20010904//EN"
 "http://www.w3.org/TR/2001/REC-SVG-20010904/DTD/svg10.dtd">
<svg version="1.0" xmlns="http://www.w3.org/2000/svg"
 width="500.000000pt" height="500.000000pt" viewBox="0 0 500.000000 500.000000"
 preserveAspectRatio="xMidYMid meet">

<g transform="translate(0.000000,500.000000) scale(0.100000,-0.100000)"
fill="#000000" stroke="none">
<path d="M1654 3231 c11 -11 30 -21 43 -21 14 0 36 -13 52 -31 24 -26 32 -29
49 -20 11 6 45 11 75 11 42 0 58 -5 73 -21 10 -12 33 -28 49 -36 62 -29 90
-50 93 -72 5 -29 -9 -43 -45 -47 -64 -8 -97 -18 -114 -35 -25 -25 -74 -24 -99
1 -11 11 -31 20 -44 20 -14 0 -28 5 -32 11 -3 6 -17 8 -31 4 -17 -4 -32 0 -44
10 -16 16 -19 16 -30 -3 -7 -11 -18 -18 -25 -15 -6 2 -15 0 -18 -6 -4 -5 4
-13 16 -17 40 -12 106 -63 135 -104 29 -41 50 -50 59 -25 3 8 15 17 27 21 12
4 30 17 40 30 16 20 27 24 75 23 47 -1 63 -7 92 -30 19 -16 38 -29 42 -29 12
0 83 -51 91 -66 4 -8 14 -14 22 -14 7 0 22 -10 32 -22 24 -30 78 -68 96 -68 8
0 20 -7 27 -16 14 -15 80 -47 87 -41 7 7 -49 163 -79 219 -70 131 -202 259
-341 327 -106 52 -179 71 -297 78 l-95 6 19 -22z"/>
<path d="M1071 2968 c-43 -52 -141 -226 -141 -251 0 -17 67 9 88 35 13 15 33
28 44 28 29 0 114 57 126 86 13 26 49 39 90 31 15 -3 44 -1 65 5 56 17 108 -3
153 -56 22 -27 48 -46 66 -50 19 -4 35 -18 49 -41 12 -19 26 -35 32 -35 7 0
24 -6 39 -14 25 -13 28 -13 42 10 42 62 5 139 -91 191 -59 32 -64 34 -85 19
-45 -32 -120 -15 -165 38 -18 20 -28 24 -56 19 -24 -3 -43 0 -62 13 -15 10
-46 19 -69 19 -23 1 -48 4 -57 8 -12 6 -29 -8 -68 -55z"/>
<path d="M3567 2963 c-14 -13 -7 -33 11 -33 26 0 34 11 21 27 -13 14 -22 16
-32 6z"/>
<path d="M2766 2908 c-3 -29 -6 -72 -6 -95 l0 -43 66 0 c36 0 74 5 85 10 28
15 24 56 -6 76 -25 17 -25 17 -5 31 25 18 26 49 1 63 -11 5 -44 10 -74 10
l-54 0 -7 -52z m104 12 c13 -9 13 -11 0 -20 -27 -17 -60 -12 -60 10 0 22 33
27 60 10z m9 -84 c9 -10 8 -16 -3 -25 -23 -19 -61 -10 -64 17 -3 18 1 22 26
22 16 0 35 -6 41 -14z"/>
<path d="M3712 2944 c-26 -18 -28 -36 -7 -54 14 -12 14 -15 0 -30 -20 -23 -19
-53 4 -74 14 -13 33 -16 72 -14 54 3 54 3 57 37 2 19 11 40 20 47 14 10 14 12
-4 22 -11 6 -38 8 -60 5 -29 -4 -43 -1 -53 11 -18 22 6 31 59 22 42 -7 53 7
28 32 -17 17 -89 15 -116 -4z m93 -109 c0 -15 -8 -21 -29 -23 -32 -4 -51 15
-34 36 17 20 63 11 63 -13z"/>
<path d="M2965 2895 c-50 -49 -19 -125 50 -125 72 0 104 86 49 129 -35 28 -69
26 -99 -4z m83 -43 c4 -26 -13 -52 -34 -52 -19 0 -36 37 -29 61 10 29 59 22
63 -9z"/>
<path d="M3107 2913 c-4 -3 -7 -37 -7 -75 0 -66 1 -68 25 -68 24 0 25 3 20 34
-8 40 8 76 34 76 23 0 31 -19 31 -69 l0 -38 79 -1 c61 -2 83 2 95 14 27 27 17
46 -37 69 -48 20 -47 29 3 22 34 -4 40 -2 40 13 0 31 -70 42 -104 17 -27 -20
-16 -50 27 -70 20 -10 37 -23 37 -28 0 -11 -27 -11 -55 0 -11 5 -25 4 -32 -1
-10 -8 -13 -1 -13 31 0 28 -6 47 -20 61 -22 22 -55 26 -66 9 -4 -8 -9 -8 -17
0 -12 12 -30 14 -40 4z"/>
<path d="M3433 2913 c-7 -2 -13 -13 -13 -23 0 -15 6 -17 43 -13 49 7 43 -7
-11 -22 -34 -10 -37 -14 -37 -45 0 -31 3 -35 28 -38 16 -2 35 2 43 9 10 8 14
8 14 0 0 -6 12 -11 26 -11 27 0 27 1 21 58 -4 42 -12 62 -28 75 -20 16 -60 21
-86 10z m67 -82 c0 -5 -7 -14 -15 -21 -18 -15 -42 1 -31 19 8 13 46 15 46 2z"/>
<path d="M3567 2913 c-4 -3 -7 -37 -7 -75 0 -61 2 -68 20 -68 18 0 20 7 20 75
0 56 -3 75 -13 75 -8 0 -17 -3 -20 -7z"/>
<path d="M1825 2708 c0 -18 -4 -45 -8 -60 -6 -23 -4 -28 11 -28 62 0 119 52
92 85 -7 8 -25 15 -41 15 -15 0 -31 5 -34 10 -12 19 -20 10 -20 -22z"/>
<path d="M1340 2709 c-15 -27 0 -87 28 -112 16 -15 20 -15 40 -1 l22 15 -21
18 c-12 10 -24 34 -28 56 -7 45 -25 55 -41 24z"/>
<path d="M894 2554 c-10 -70 2 -219 25 -297 80 -273 293 -483 562 -552 98 -26
293 -23 394 4 270 74 463 256 551 517 20 62 27 106 31 203 l6 124 -23 -23
c-17 -17 -30 -21 -56 -17 -22 4 -37 1 -45 -9 -6 -8 -29 -14 -51 -14 -31 0 -45
-6 -59 -25 -37 -46 -121 -45 -166 3 -18 19 -33 26 -53 24 -16 -2 -39 2 -52 9
-13 8 -39 14 -58 14 -28 0 -38 6 -55 32 -25 39 -48 41 -98 7 -38 -25 -41 -44
-8 -44 10 0 28 -11 41 -25 13 -14 32 -25 41 -25 24 0 59 -38 59 -65 0 -11 -7
-30 -15 -42 -15 -21 -14 -24 24 -62 65 -65 76 -94 75 -193 l-1 -87 116 -3 116
-3 0 -35 0 -35 -514 0 c-478 0 -515 1 -525 18 -8 12 -8 22 0 35 10 15 34 18
175 23 90 3 174 7 186 8 29 2 117 73 149 121 33 50 27 80 -20 103 -20 9 -38
12 -40 8 -9 -14 -67 -19 -101 -10 -17 5 -44 22 -59 38 -23 24 -35 29 -57 24
-18 -3 -38 1 -53 10 -14 9 -41 16 -60 15 -22 -1 -44 6 -56 17 -27 24 -27 79 0
98 20 14 19 15 -17 53 -33 36 -40 39 -82 36 -37 -3 -50 1 -65 17 -15 17 -26
19 -63 14 -37 -5 -48 -2 -68 17 l-23 22 -8 -48z"/>
<path d="M2577 2583 c-4 -3 -7 -46 -7 -95 0 -87 0 -88 25 -88 23 0 25 4 25 41
0 33 3 40 18 37 9 -2 25 -20 35 -40 14 -28 25 -38 43 -38 44 0 27 67 -24 94
-17 10 -21 15 -11 16 22 0 49 32 49 58 0 31 -38 29 -50 -2 -8 -22 -37 -46 -54
-46 -3 0 -6 16 -6 35 0 27 -4 35 -18 35 -10 0 -22 -3 -25 -7z"/>
<path d="M2917 2583 c-4 -3 -7 -46 -7 -95 l0 -88 26 0 c23 0 26 3 22 25 -9 44
30 44 50 -1 14 -29 52 -33 52 -5 0 22 -25 51 -43 51 -7 0 -3 8 9 18 29 23 38
51 19 58 -9 4 -27 -7 -45 -26 -37 -40 -51 -32 -43 25 5 40 4 45 -14 45 -11 0
-23 -3 -26 -7z"/>
<path d="M3320 2559 c0 -26 -3 -30 -12 -21 -34 34 -88 -7 -88 -67 0 -56 18
-70 91 -70 l60 1 -3 91 c-3 87 -4 92 -25 95 -20 3 -23 -1 -23 -29z m-2 -85 c2
-22 -2 -33 -14 -38 -22 -8 -44 11 -44 39 0 28 9 37 35 33 14 -2 21 -12 23 -34z"/>
<path d="M2776 2529 c-55 -43 -23 -129 49 -129 70 0 100 76 50 125 -30 30 -64
32 -99 4z m80 -44 c7 -27 -9 -55 -31 -55 -22 0 -38 28 -31 55 5 18 13 25 31
25 18 0 26 -7 31 -25z"/>
<path d="M3095 2525 c-31 -30 -32 -73 -4 -104 17 -18 30 -21 67 -19 41 3 47 6
50 27 3 20 1 23 -15 16 -38 -15 -49 -16 -68 0 -19 15 -19 15 8 9 31 -7 77 17
77 41 0 24 -38 55 -65 55 -14 0 -37 -11 -50 -25z m73 -27 c-5 -15 -58 -24 -58
-10 0 15 12 22 38 22 14 0 22 -5 20 -12z"/>
<path d="M3403 2543 c-7 -2 -13 -13 -13 -23 0 -15 6 -17 42 -13 29 4 39 3 34
-5 -4 -7 -15 -12 -24 -12 -60 0 -86 -82 -29 -88 16 -2 35 2 43 9 10 8 14 8 14
0 0 -6 11 -11 25 -11 23 0 25 4 25 46 0 45 -13 82 -34 96 -12 9 -64 9 -83 1z
m67 -87 c0 -18 -30 -30 -43 -17 -5 5 -6 14 -3 20 10 16 46 13 46 -3z"/>
<path d="M3536 2542 c-3 -3 -6 -36 -6 -74 0 -61 2 -68 20 -68 16 0 20 7 20 38
0 42 21 79 38 68 7 -4 12 -29 12 -57 0 -45 2 -49 24 -49 23 0 25 4 28 53 2 38
7 52 18 52 11 0 16 -14 18 -52 3 -50 5 -53 29 -53 25 0 26 1 20 56 -8 80 -53
120 -87 79 -10 -12 -15 -13 -21 -4 -7 13 -103 22 -113 11z"/>
<path d="M3793 2543 c-7 -2 -13 -13 -13 -23 0 -15 6 -17 43 -13 49 7 43 -7
-11 -22 -34 -10 -37 -14 -37 -45 0 -31 3 -35 28 -38 16 -2 35 2 43 9 10 8 14
8 14 0 0 -6 12 -11 26 -11 27 0 27 1 21 58 -4 42 -12 62 -28 75 -20 16 -60 21
-86 10z m67 -82 c0 -5 -7 -14 -15 -21 -18 -15 -42 1 -31 19 8 13 46 15 46 2z"/>
<path d="M3939 2532 c-30 -25 -20 -48 33 -71 35 -15 40 -20 25 -26 -10 -4 -29
-3 -43 4 -34 15 -36 14 -32 -11 3 -21 9 -23 57 -23 40 0 57 4 65 18 15 23 -2
48 -41 61 -50 17 -52 29 -5 23 36 -4 42 -2 42 13 0 34 -64 41 -101 12z"/>
<path d="M3007 2213 c-4 -3 -7 -46 -7 -95 l0 -88 80 0 80 0 0 30 c0 33 -6 36
-34 15 -11 -8 -30 -15 -42 -15 -37 0 -47 24 -41 95 6 58 4 65 -12 65 -10 0
-21 -3 -24 -7z"/>
<path d="M3196 2159 c-36 -28 -37 -91 -2 -114 35 -23 85 -16 109 17 23 31 18
67 -15 98 -28 26 -58 25 -92 -1z m79 -39 c6 -20 -10 -60 -25 -60 -25 0 -40 15
-40 39 0 34 7 41 36 41 14 0 25 -8 29 -20z"/>
<path d="M3328 2175 c-5 -6 12 -67 37 -127 4 -11 18 -18 35 -18 23 0 31 7 49
49 29 68 31 96 7 96 -14 0 -23 -14 -35 -55 -18 -60 -25 -58 -46 14 -11 38 -32
56 -47 41z"/>
<path d="M3525 2168 c-28 -16 -35 -28 -35 -65 0 -49 31 -75 83 -71 34 2 43 7
45 25 3 20 1 21 -27 10 -26 -10 -34 -9 -48 6 -17 17 -16 17 13 11 56 -11 87
49 42 80 -26 19 -45 20 -73 4z m53 -41 c3 -12 -4 -17 -22 -17 -27 0 -37 24
-13 33 19 8 32 2 35 -16z"/>
</g>
</svg>
