<?xml version="1.0" standalone="no"?>
<!DOCTYPE svg PUBLIC "-//W3C//DTD SVG 20010904//EN"
 "http://www.w3.org/TR/2001/REC-SVG-20010904/DTD/svg10.dtd">
<svg version="1.0" xmlns="http://www.w3.org/2000/svg"
 width="512.000000pt" height="512.000000pt" viewBox="0 0 512.000000 512.000000"
 preserveAspectRatio="xMidYMid meet">

<g transform="translate(0.000000,512.000000) scale(0.100000,-0.100000)"
fill="#ffffff" stroke="none">
<path d="M2427 4893 c-4 -6 5 -15 18 -21 14 -6 46 -31 71 -54 41 -38 52 -43
111 -49 75 -8 134 -42 169 -99 56 -89 84 -98 161 -50 63 39 134 48 198 27 36
-13 52 -14 68 -6 11 6 42 9 69 7 52 -5 89 -31 111 -78 7 -13 26 -31 42 -39 17
-7 42 -25 57 -38 15 -15 46 -29 75 -34 39 -7 56 -17 89 -54 27 -30 48 -45 65
-45 31 0 83 -32 104 -64 21 -32 22 -94 1 -134 -25 -49 -67 -66 -144 -59 -62 6
-66 5 -100 -25 -34 -30 -38 -30 -105 -25 l-69 6 -56 -58 c-47 -47 -66 -60
-110 -71 -91 -21 -174 8 -238 85 l-38 44 -71 -6 c-70 -6 -72 -5 -108 27 -37
32 -38 33 -93 21 -44 -8 -62 -8 -88 3 -30 13 -69 52 -79 79 -6 18 -44 -19 -75
-73 -14 -25 -26 -46 -27 -48 -2 -1 -14 3 -28 9 -22 10 -31 9 -52 -5 -14 -9
-25 -20 -25 -25 0 -5 27 -19 60 -31 141 -53 319 -180 394 -282 58 -78 128
-172 136 -181 4 -4 19 -5 34 -1 19 4 32 18 43 45 18 46 59 78 109 86 24 4 41
14 52 32 68 111 165 155 276 126 47 -12 66 -13 93 -4 64 21 129 -7 158 -67 10
-21 29 -39 48 -48 18 -7 46 -25 63 -39 18 -15 42 -27 54 -27 37 0 92 -32 112
-66 14 -23 29 -34 56 -39 74 -14 102 -40 126 -117 3 -10 15 -18 28 -18 62 -1
134 -56 163 -127 10 -22 27 -37 61 -52 26 -12 66 -39 90 -61 35 -32 51 -40 82
-40 58 0 121 -37 166 -97 29 -40 45 -53 65 -53 47 0 101 -20 135 -51 l34 -29
-20 92 c-57 265 -187 571 -341 803 -392 591 -1010 982 -1707 1080 -142 20
-464 32 -473 18z"/>
<path d="M776 4127 c-197 -216 -347 -442 -451 -675 -36 -83 -95 -235 -95 -247
0 -2 19 5 43 15 23 11 62 20 87 20 53 0 84 18 106 63 41 80 112 126 216 137
64 7 71 11 127 63 35 32 80 62 108 73 64 23 70 29 95 86 27 63 95 124 161 143
67 20 96 19 168 -6 l60 -21 84 27 c75 25 95 27 174 23 77 -5 102 -11 166 -41
91 -44 166 -116 213 -204 37 -70 54 -83 109 -83 90 0 196 -83 228 -179 19 -59
45 -81 95 -81 43 0 116 -32 151 -66 l26 -25 27 36 c54 71 71 122 71 220 0 76
-4 99 -26 145 -60 129 -239 265 -451 345 -46 17 -46 17 -90 -8 -188 -110 -434
-54 -550 124 -40 63 -66 74 -116 53 -89 -38 -214 -9 -268 61 -30 40 -65 50
-102 31 -72 -37 -177 -25 -247 28 -18 14 -36 26 -39 26 -2 0 -39 -37 -80 -83z"/>
<path d="M3037 3231 c6 -77 -8 -168 -37 -236 l-19 -44 57 -6 c31 -4 62 -8 67
-9 6 -2 26 6 46 16 20 10 56 22 80 26 41 7 46 11 70 62 15 30 36 64 48 74 l21
19 -33 31 c-18 17 -42 44 -53 60 -21 28 -21 29 -71 17 -57 -14 -102 -1 -137
38 -36 40 -45 28 -39 -48z"/>
<path d="M1533 3270 c-37 -15 -48 -49 -48 -145 0 -78 4 -99 29 -152 28 -62
120 -163 147 -163 7 0 22 9 34 20 11 10 45 32 74 49 l53 29 -34 11 c-49 16
-108 69 -129 115 -13 28 -19 65 -19 117 0 58 -4 82 -17 97 -21 25 -60 35 -90
22z"/>
<path d="M131 2762 c-96 -761 158 -1503 699 -2042 885 -884 2288 -958 3270
-174 180 144 396 386 534 599 103 158 219 414 275 608 77 265 114 591 95 841
l-9 120 -27 -41 c-48 -73 -156 -104 -242 -68 -41 17 -57 12 -96 -30 -52 -56
-130 -75 -201 -51 -65 23 -75 20 -108 -28 -122 -177 -343 -216 -508 -90 -18
14 -51 50 -73 80 -23 30 -48 54 -56 54 -8 0 -37 -7 -64 -16 -70 -23 -131 -7
-200 52 -28 24 -53 44 -55 44 -1 0 -19 -7 -38 -15 -75 -31 -170 -11 -224 47
-26 27 -53 88 -53 118 0 18 -6 20 -77 19 -43 0 -93 -5 -110 -12 -32 -12 -193
-151 -193 -166 0 -5 24 -11 53 -13 88 -7 147 -49 202 -142 7 -11 32 -20 75
-26 79 -11 134 -47 167 -109 46 -87 22 -210 -53 -267 l-33 -26 59 -44 c139
-105 257 -266 306 -419 38 -116 43 -274 15 -412 -12 -55 -21 -104 -21 -107 0
-3 152 -6 338 -8 306 -3 339 -5 364 -21 83 -56 81 -181 -2 -231 -26 -15 -160
-16 -1573 -16 -897 0 -1555 4 -1569 9 -62 24 -95 100 -72 167 16 46 42 70 92
84 23 6 227 10 534 10 564 0 522 -6 660 88 199 135 389 371 388 482 -1 51 -28
77 -141 135 l-100 51 -66 -33 c-59 -30 -74 -33 -154 -33 -145 0 -239 47 -328
164 -42 56 -45 58 -80 52 -156 -27 -200 -18 -278 57 l-43 41 -50 -18 c-113
-41 -226 -2 -278 94 -20 38 -23 56 -20 112 4 82 40 140 105 172 47 24 52 32
23 41 -30 9 -136 110 -161 153 -39 66 -67 75 -144 47 -94 -34 -184 -13 -264
60 -31 29 -64 54 -74 58 -9 4 -41 -3 -70 -14 -40 -16 -67 -20 -117 -17 -79 6
-122 26 -176 84 l-41 43 -12 -97z"/>
</g>
</svg>
